<?xml version="1.0" encoding="utf-8"?>
<svg viewBox="32.945 -157.646 867.436 810.703" xmlns="http://www.w3.org/2000/svg">
  <path fill="#9EFFFF" opacity="1.000000" stroke="none" d=" M549.304749,296.269104 C546.705933,299.579987 544.258728,303.024323 541.481812,306.178467 C530.272888,318.910156 519.020874,331.605255 507.651703,344.193756 C504.453979,347.734467 500.802307,350.865173 496.690704,354.210449 C488.731262,357.741150 481.921387,361.921570 477.546936,368.995850 C473.687836,375.236694 470.502594,376.437012 463.995087,372.949615 C454.643127,367.937927 445.353455,362.794342 436.244598,357.359406 C434.639648,356.401794 433.473419,353.845184 433.120300,351.847443 C432.531708,348.517700 433.902344,344.395538 432.407806,341.767090 C429.511749,336.673767 430.371826,333.207642 434.407379,330.331665 C433.907379,328.165833 433.509277,326.441498 433.013031,324.291901 C435.343109,324.965363 436.810486,325.389496 438.348267,325.833984 C439.155579,319.860687 437.439636,317.846466 431.023682,317.132111 C431.268463,315.857147 431.211487,314.450745 431.796692,313.403076 C434.232178,309.042786 433.723511,304.549622 433.018921,299.907684 C432.585663,297.053040 432.959442,294.083374 432.637390,291.202637 C432.096222,286.362000 430.776154,281.549866 430.787537,276.728119 C430.794281,273.856262 434.450806,269.929352 433.462738,268.313049 C430.150238,262.894562 434.999634,254.722153 427.161224,251.637405 C430.901520,243.952301 433.172058,236.665161 430.127045,230.288498 C432.395569,226.849747 435.566833,224.178085 435.540436,221.538391 C435.507935,218.287369 432.811127,215.062988 430.888367,211.036789 C435.678894,210.297470 439.864288,209.265701 444.087921,209.073135 C456.029938,208.528641 468.010559,208.655685 479.927216,207.821701 C484.346222,207.512421 488.629669,205.265854 492.974945,203.902771 C512.672302,203.825745 532.369690,203.748688 552.428223,204.193176 C552.452515,205.063095 552.144775,205.680130 551.774658,205.720139 C544.374695,206.519989 536.982422,207.568588 529.558044,207.918472 C520.704712,208.335709 511.822113,208.112564 502.953735,208.260010 C502.061432,208.274857 501.078857,208.786697 500.312378,209.318787 C498.140106,210.826752 495.986053,212.379120 493.964294,214.079742 C492.429657,215.370575 491.108734,216.915451 490.701385,217.327332 C491.929230,220.524506 492.606659,222.479248 493.435486,224.367538 C493.861237,225.337585 494.433472,226.304855 495.153015,227.073502 C497.835114,229.938431 497.528412,232.888016 494.759674,235.619461 C492.424438,237.923203 490.572601,240.716919 489.219086,242.405273 C491.235748,245.249802 492.476166,246.999420 493.716614,248.749023 C491.369781,248.485886 489.022949,248.222763 485.565338,247.835083 C486.706482,250.875275 487.813171,253.823700 489.329437,257.863220 C490.725677,255.534454 491.402008,254.406433 492.745544,252.165604 C494.818909,255.956360 496.420715,258.884918 497.956207,261.692261 C494.114563,265.012238 490.378876,268.171814 491.762726,273.120026 C492.968933,277.433044 495.489807,281.378418 497.546417,285.733215 C496.560577,286.410156 495.414032,287.197418 494.612854,287.747559 C495.154449,289.939880 495.537872,291.680939 496.020935,293.393921 C496.500916,295.096222 497.081024,296.770233 497.598907,298.398987 C496.269897,299.789062 494.912384,300.995392 493.816589,302.405212 C492.179718,304.511139 492.373596,314.378723 494.339935,315.385773 C500.116425,318.344177 498.170502,320.821777 493.274292,323.582672 C500.985229,327.884308 500.562866,333.327637 496.017090,339.325165 C499.248993,341.577118 501.725250,341.954376 504.265137,338.662720 C506.467407,335.808685 509.042664,333.222412 511.604218,330.669464 C518.613770,323.683563 525.541504,316.602386 532.814880,309.898895 C538.051025,305.072998 543.790039,300.792725 549.304749,296.269104 z" transform="matrix(1, 0, 0, 1, -46.564747, -70.000046)"/>
  <path fill="#A3FFFF" opacity="1.000000" stroke="none" d=" M492.526184,203.766922 C488.629669,205.265854 484.346222,207.512421 479.927216,207.821701 C468.010559,208.655685 456.029938,208.528641 444.087921,209.073135 C439.864288,209.265701 435.678894,210.297470 430.888367,211.036789 C432.811127,215.062988 435.507935,218.287369 435.540436,221.538391 C435.566833,224.178085 432.395569,226.849747 430.127045,230.288498 C433.172058,236.665161 430.901520,243.952301 427.161224,251.637405 C434.999634,254.722153 430.150238,262.894562 433.462738,268.313049 C434.450806,269.929352 430.794281,273.856262 430.787537,276.728119 C430.776154,281.549866 432.096222,286.362000 432.637390,291.202637 C432.959442,294.083374 432.585663,297.053040 433.018921,299.907684 C433.723511,304.549622 434.232178,309.042786 431.796692,313.403076 C431.211487,314.450745 431.268463,315.857147 431.023682,317.132111 C437.439636,317.846466 439.155579,319.860687 438.348267,325.833984 C436.810486,325.389496 435.343109,324.965363 433.013031,324.291901 C433.509277,326.441498 433.907379,328.165833 434.407379,330.331665 C430.371826,333.207642 429.511749,336.673767 432.407806,341.767090 C433.902344,344.395538 432.531708,348.517700 433.120300,351.847443 C433.473419,353.845184 434.639648,356.401794 436.244598,357.359406 C445.353455,362.794342 454.643127,367.937927 463.995087,372.949615 C470.502594,376.437012 473.687836,375.236694 477.546936,368.995850 C481.921387,361.921570 488.731262,357.741150 496.424561,354.385193 C489.247559,362.989746 481.750427,371.522675 473.996399,379.815369 C472.901764,380.986053 470.073456,381.968231 468.859589,381.375336 C455.347931,374.775421 441.984375,367.871216 428.607147,360.997894 C423.170380,358.204468 417.797791,355.286163 412.177429,351.791443 C410.696686,349.799377 409.671692,348.020752 408.132996,347.151398 C399.691589,342.382263 391.380463,337.426575 384.370209,330.660858 C383.317047,329.644470 382.831177,326.071930 383.089874,325.957428 C387.589233,323.966431 386.010376,321.794189 383.704407,318.596619 C385.505035,318.954041 387.305634,319.311462 390.331360,319.912109 C387.686462,307.237793 386.432281,294.960846 391.325867,283.226562 C390.202728,282.598480 389.769836,282.374329 389.354736,282.121002 C387.941223,281.258453 386.533936,280.385681 385.124298,279.516785 C386.140778,278.409973 387.057526,277.185883 388.193512,276.219574 C390.959656,273.866730 391.671844,271.660492 389.737244,268.035095 C387.160309,263.205933 383.167297,257.954193 386.773743,252.255371 C388.534515,249.473068 388.065094,247.238388 388.129700,244.484222 C388.282623,237.967316 389.182037,231.470718 389.663544,224.957306 C389.840942,222.557251 389.692169,220.133057 389.692169,217.719879 C393.705872,211.449860 400.699493,208.137177 408.377502,206.857590 C417.261902,205.376953 426.294403,204.567856 435.295959,204.069733 C443.760559,203.601334 452.268616,203.917587 460.757538,203.888611 C471.197510,203.802765 481.637451,203.716919 492.526184,203.766922 z" transform="matrix(1, 0, 0, 1, -46.564747, -70.000046)"/>
  <path fill="#A9FEFF" opacity="1.000000" stroke="none" d=" M460.408203,203.761353 C452.268616,203.917587 443.760559,203.601334 435.295959,204.069733 C426.294403,204.567856 417.261902,205.376953 408.377502,206.857590 C400.699493,208.137177 393.705872,211.449860 389.692169,217.719879 C389.692169,220.133057 389.840942,222.557251 389.663544,224.957306 C389.182037,231.470718 388.282623,237.967316 388.129700,244.484222 C388.065094,247.238388 388.534515,249.473068 386.773743,252.255371 C383.167297,257.954193 387.160309,263.205933 389.737244,268.035095 C391.671844,271.660492 390.959656,273.866730 388.193512,276.219574 C387.057526,277.185883 386.140778,278.409973 385.124298,279.516785 C386.533936,280.385681 387.941223,281.258453 389.354736,282.121002 C389.769836,282.374329 390.202728,282.598480 391.325867,283.226562 C386.432281,294.960846 387.686462,307.237793 390.331360,319.912109 C387.305634,319.311462 385.505035,318.954041 383.704407,318.596619 C386.010376,321.794189 387.589233,323.966431 383.089874,325.957428 C382.831177,326.071930 383.317047,329.644470 384.370209,330.660858 C391.380463,337.426575 399.691589,342.382263 408.132996,347.151398 C409.671692,348.020752 410.696686,349.799377 411.943237,351.519470 C401.350372,346.651764 390.746429,341.475983 380.201599,336.182404 C360.616852,326.350677 341.106262,316.370239 321.477661,306.627258 C315.600922,303.710175 309.434601,301.376465 302.840424,298.533875 C309.745544,290.007660 316.353607,281.988068 322.809235,273.847595 C335.858795,257.392273 348.791107,240.843918 361.843140,224.390564 C367.263580,217.557556 374.398163,213.056244 382.150726,209.153656 C391.700836,204.346176 401.702301,203.365311 412.124359,203.515549 C428.099792,203.745834 444.080444,203.612885 460.408203,203.761353 z" transform="matrix(1, 0, 0, 1, -46.564747, -70.000046)"/>
  <path fill="#A7FEFF" opacity="1.000000" stroke="none" d=" M199.181854,385.441284 C191.893158,391.601471 184.699402,397.878479 177.294495,403.895691 C164.839935,414.016296 152.252716,423.973694 139.717041,433.994446 C138.081039,435.302246 136.420029,436.578766 134.019196,438.457855 C134.019196,381.708466 134.019196,325.730988 134.019196,269.472504 C135.226334,269.931091 136.725967,270.408966 138.149048,271.055359 C157.825317,279.992523 177.476700,288.984741 197.176498,297.869598 C199.816284,299.060150 202.687759,299.737030 205.515717,301.207214 C204.690353,302.001404 203.686142,302.636475 202.930023,302.416962 C196.058807,300.422272 189.177734,298.434753 182.405899,296.132355 C176.188705,294.018494 174.572632,294.620422 174.130875,301.243256 C173.649933,308.453766 169.978683,315.488983 172.829498,322.934296 C173.092773,323.621887 172.005661,324.721832 171.940887,325.657654 C171.642838,329.963409 171.456970,334.277802 171.298965,338.591614 C171.264221,339.540039 171.942886,341.070343 171.555817,341.365265 C167.057266,344.793427 170.619720,349.383728 170.993607,352.562134 C171.642822,358.081055 174.219986,363.203979 171.180359,368.840302 C170.702911,369.725616 171.727402,371.511658 172.241653,372.808167 C172.567825,373.630463 173.534302,374.256378 173.701431,375.074921 C174.963882,381.257141 176.099365,387.465240 177.401169,394.333649 C179.383850,393.484192 180.758820,393.055176 181.971268,392.347656 C186.980240,389.424652 191.996475,386.506134 196.889236,383.395905 C198.773346,382.198212 199.859421,381.837006 200.079971,384.561859 C200.079971,384.561859 199.896027,385.001282 199.608002,385.097687 C199.319962,385.194092 199.181854,385.441284 199.181854,385.441284 z" transform="matrix(1, 0, 0, 1, -46.564747, -70.000046)"/>
  <path fill="#9AFDFF" opacity="1.000000" stroke="none" d=" M549.651184,296.224335 C543.790039,300.792725 538.051025,305.072998 532.814880,309.898895 C525.541504,316.602386 518.613770,323.683563 511.604218,330.669464 C509.042664,333.222412 506.467407,335.808685 504.265137,338.662720 C501.725250,341.954376 499.248993,341.577118 496.017090,339.325165 C500.562866,333.327637 500.985229,327.884308 493.274292,323.582672 C498.170502,320.821777 500.116425,318.344177 494.339935,315.385773 C492.373596,314.378723 492.179718,304.511139 493.816589,302.405212 C494.912384,300.995392 496.269897,299.789062 497.598907,298.398987 C497.081024,296.770233 496.500916,295.096222 496.020935,293.393921 C495.537872,291.680939 495.154449,289.939880 494.612854,287.747559 C495.414032,287.197418 496.560577,286.410156 497.546417,285.733215 C495.489807,281.378418 492.968933,277.433044 491.762726,273.120026 C490.378876,268.171814 494.114563,265.012238 497.956207,261.692261 C496.420715,258.884918 494.818909,255.956360 492.745544,252.165604 C491.402008,254.406433 490.725677,255.534454 489.329437,257.863220 C487.813171,253.823700 486.706482,250.875275 485.565338,247.835083 C489.022949,248.222763 491.369781,248.485886 493.716614,248.749023 C492.476166,246.999420 491.235748,245.249802 489.219086,242.405273 C490.572601,240.716919 492.424438,237.923203 494.759674,235.619461 C497.528412,232.888016 497.835114,229.938431 495.153015,227.073502 C494.433472,226.304855 493.861237,225.337585 493.435486,224.367538 C492.606659,222.479248 491.929230,220.524506 490.701385,217.327332 C491.108734,216.915451 492.429657,215.370575 493.964294,214.079742 C495.986053,212.379120 498.140106,210.826752 500.312378,209.318787 C501.078857,208.786697 502.061432,208.274857 502.953735,208.260010 C511.822113,208.112564 520.704712,208.335709 529.558044,207.918472 C536.982422,207.568588 544.374695,206.519989 551.774658,205.720139 C552.144775,205.680130 552.452515,205.063095 552.877502,204.329056 C564.667297,203.849167 576.368896,203.754959 588.470459,204.185028 C587.398315,205.472092 585.999878,206.600006 584.437500,206.915100 C581.861328,207.434647 579.169922,207.350082 576.543579,207.660568 C570.831787,208.335815 565.135681,209.144424 559.422485,209.806396 C556.926575,210.095596 554.404480,210.158646 552.326416,210.295853 C549.783142,209.893921 547.617432,209.404602 545.440063,209.345398 C545.055603,209.334961 544.463013,211.085648 544.243408,212.083954 C543.707520,214.519928 543.333801,216.991592 542.762573,220.188812 C546.405273,224.389267 546.357483,230.600250 545.747253,236.994125 C546.789062,237.666611 547.856079,238.355331 549.566711,239.459518 C543.537048,245.668243 535.697510,251.306946 542.721375,260.993622 C540.919983,264.092834 539.380493,267.203735 537.416199,270.018158 C534.036377,274.860687 533.824585,279.665741 536.440247,284.905304 C537.110352,286.247620 536.653198,288.121979 536.865417,289.731934 C537.092773,291.455658 537.499023,293.155823 537.827148,294.866272 C539.617188,294.303314 541.500305,293.932556 543.171570,293.123993 C544.891479,292.291779 546.382629,290.997070 548.017334,289.974243 C548.973022,289.376282 550.240784,289.131622 550.981384,288.357788 C558.836792,280.149811 566.578674,271.833038 574.438110,263.628906 C576.477478,261.500061 578.729492,259.540375 581.094727,257.787598 C581.563049,257.440582 582.997314,258.397064 583.986084,258.752441 C575.103638,268.800476 566.254639,278.878418 557.315674,288.875885 C555.022217,291.440918 552.444641,293.751862 549.651184,296.224335 z" transform="matrix(1, 0, 0, 1, -46.564747, -70.000046)"/>
  <path fill="#A9FFFF" opacity="1.000000" stroke="none" d=" M547.760742,312.392273 C560.745911,297.823425 573.731018,283.254578 586.575500,268.843536 C589.038086,269.907349 591.148254,270.818909 593.527039,272.232971 C591.386475,273.496521 588.171814,273.529083 586.709167,275.146240 C580.737305,281.749115 574.944641,288.645844 574.002930,298.104523 C573.090942,307.264648 571.785950,316.410950 571.437256,325.593109 C571.198059,331.891724 572.378906,338.236664 572.743591,344.571350 C572.830750,346.084930 572.137146,347.631470 571.906433,349.178284 C571.625122,351.064575 571.298828,352.965820 571.281677,354.863220 C571.267151,356.471893 571.604858,358.095215 571.895813,359.692169 C572.224609,361.496399 572.195862,363.611450 573.164917,365.006195 C575.828552,368.840118 574.993042,372.983124 573.701294,376.519470 C572.463379,379.908417 569.372925,382.574493 573.268677,386.133636 C573.713013,386.539520 573.368469,388.521759 572.761658,389.248962 C569.014465,393.739441 570.973450,398.076599 572.380066,402.773712 C573.775696,407.434204 574.353699,412.377960 574.844421,417.242462 C574.959290,418.380890 573.548767,420.235657 572.369019,420.837646 C568.708069,422.705505 569.115479,425.255402 571.875854,426.707367 C575.673645,428.704926 580.016846,429.697601 584.170654,430.976868 C587.737854,432.075500 591.367310,432.972046 594.502808,433.974060 C576.636780,434.038086 559.203674,434.803589 542.002258,431.097534 C538.948547,430.439606 535.706177,430.613525 532.684082,429.865448 C529.754578,429.140289 528.059998,427.501282 528.720947,423.708954 C529.342041,420.144531 531.722107,415.929779 526.846252,412.925476 C530.280884,410.105408 530.128967,407.443207 527.318604,404.760254 C526.855347,404.317993 526.192261,403.568512 526.299072,403.123749 C527.703064,397.278778 523.967285,390.878571 528.576965,385.192505 C529.536011,384.009552 527.955627,380.626526 527.305420,378.325256 C526.791748,376.507324 525.064575,374.639374 525.352173,373.062927 C526.161865,368.625793 527.732910,364.327545 529.129272,359.544891 C528.558228,359.248871 527.334534,358.614563 526.554199,358.210022 C527.125427,355.001465 527.676697,352.307648 528.073975,349.591339 C528.957092,343.553680 529.763489,337.786316 534.738586,333.089630 C538.892578,329.168121 541.885132,324.010315 545.349365,319.368195 C546.315613,318.073425 547.874390,316.540680 544.770264,315.854492 C545.510071,314.952972 546.249878,314.051453 547.324097,312.897827 C547.658447,312.645660 547.760742,312.392242 547.760742,312.392273 z" transform="matrix(1, 0, 0, 1, -46.564747, -70.000046)"/>
  <path fill="#B0FDFE" opacity="1.000000" stroke="none" d=" M544.494934,316.039642 C547.874390,316.540680 546.315613,318.073425 545.349365,319.368195 C541.885132,324.010315 538.892578,329.168121 534.738586,333.089630 C529.763489,337.786316 528.957092,343.553680 528.073975,349.591339 C527.676697,352.307648 527.125427,355.001465 526.554199,358.210022 C527.334534,358.614563 528.558228,359.248871 529.129272,359.544891 C527.732910,364.327545 526.161865,368.625793 525.352173,373.062927 C525.064575,374.639374 526.791748,376.507324 527.305420,378.325256 C527.955627,380.626526 529.536011,384.009552 528.576965,385.192505 C523.967285,390.878571 527.703064,397.278778 526.299072,403.123749 C526.192261,403.568512 526.855347,404.317993 527.318604,404.760254 C530.128967,407.443207 530.280884,410.105408 526.846252,412.925476 C531.722107,415.929779 529.342041,420.144531 528.720947,423.708954 C528.059998,427.501282 529.754578,429.140289 532.684082,429.865448 C535.706177,430.613525 538.948547,430.439606 542.002258,431.097534 C559.203674,434.803589 576.636780,434.038086 594.974731,433.995392 C607.574890,433.941223 619.236694,433.881866 631.286255,433.901154 C632.966858,434.020447 634.259766,434.061157 635.552612,434.101837 C631.260315,434.374054 626.968811,434.867554 622.675659,434.881866 C598.423523,434.962799 574.171082,434.928711 549.115234,434.622192 C543.557617,434.203674 538.800293,433.938049 534.050354,434.034943 C529.353516,434.130676 524.664124,434.592529 519.971497,434.893799 C509.177643,435.079132 498.384460,435.339661 487.589813,435.432404 C470.953735,435.575378 454.316650,435.605652 437.679962,435.671021 C437.050110,435.673492 436.419708,435.543701 434.861694,435.375214 C437.047119,432.866028 438.736115,430.784546 440.572205,428.842133 C451.467407,417.316254 462.490356,405.909607 473.281158,394.287201 C480.379303,386.641937 487.100250,378.647949 494.096161,370.905945 C503.001312,361.051117 511.992767,351.273895 520.989502,341.502319 C524.859009,337.299530 528.835327,333.195007 533.187439,328.908997 C533.611816,328.772186 533.732483,328.472565 533.732483,328.472534 C537.228149,324.389954 540.723877,320.307373 544.494934,316.039642 z" transform="matrix(1, 0, 0, 1, -46.564747, -70.000046)"/>
  <path fill="#9CFEFF" opacity="1.000000" stroke="none" d=" M635.901978,434.054443 C634.259766,434.061157 632.966858,434.020447 631.227234,433.562073 C629.966248,432.645264 629.202026,431.838409 628.329712,431.696564 C622.316223,430.718536 616.300476,429.685577 610.245544,429.050659 C604.356812,428.433197 600.977966,426.276581 601.194214,422.852173 C601.825195,412.859894 604.125854,402.638794 597.465332,393.548645 C597.146912,393.114044 597.211365,392.259918 597.345703,391.656372 C597.951416,388.934052 598.702393,386.243896 599.298767,383.519714 C600.872009,376.333282 603.317993,369.149017 599.550232,361.885315 C599.347534,361.494507 599.285767,360.808380 599.493713,360.459686 C603.007202,354.568146 601.056396,348.237732 600.951416,342.082703 C600.867798,337.182495 600.572144,332.276428 600.133911,327.394226 C599.643250,321.928650 598.884460,316.487183 598.252014,311.034088 C598.234253,310.880737 598.340881,310.716797 598.364990,310.554169 C598.912170,306.861664 599.411499,303.161407 600.013184,299.477844 C600.598328,295.895508 601.179626,292.306274 601.963440,288.764496 C602.676086,285.544312 605.155090,284.411194 608.045837,285.115356 C613.627258,286.474823 619.117615,288.211731 624.634277,289.831329 C627.511902,290.676117 630.448303,292.727448 632.985474,289.204651 C641.567810,293.189850 650.150208,297.175079 658.685303,301.738068 C652.681213,301.132263 646.654053,300.213074 640.796814,298.655121 C637.801514,297.858429 636.329834,298.702637 635.396606,301.245483 C633.526123,306.342163 632.739868,311.385986 635.778931,316.447723 C636.366760,317.426849 636.081299,319.064209 635.890625,320.352295 C635.269775,324.546783 634.295471,328.698639 633.865173,332.908600 C633.528381,336.203766 633.797607,339.560913 633.797607,342.010284 C633.524658,345.881744 633.826843,348.714081 633.042114,351.203796 C631.534607,355.986389 631.584473,360.372864 633.836914,364.922607 C634.523010,366.308441 634.032776,368.308289 633.976074,370.023438 C633.865479,373.369354 633.134766,376.798248 633.641602,380.039398 C634.668823,386.607513 637.476929,393.042999 633.413147,399.583649 C632.790161,400.586365 632.901428,402.200134 633.038330,403.492584 C633.542725,408.253815 634.558411,412.987091 634.713867,417.752625 C634.926270,424.263123 637.807190,426.812927 644.182800,425.837463 C647.995178,425.254181 651.905273,425.309784 655.771484,425.078247 C654.961426,425.700256 654.151428,426.322296 652.786316,426.990875 C651.825134,427.289703 651.418945,427.541992 651.012817,427.794250 C646.092346,429.865173 641.171814,431.936096 635.901978,434.054443 z" transform="matrix(1, 0, 0, 1, -46.564747, -70.000046)"/>
  <path fill="#9FFEFF" opacity="1.000000" stroke="none" d=" M200.360748,384.443878 C199.859421,381.837006 198.773346,382.198212 196.889236,383.395905 C191.996475,386.506134 186.980240,389.424652 181.971268,392.347656 C180.758820,393.055176 179.383850,393.484192 177.401169,394.333649 C176.099365,387.465240 174.963882,381.257141 173.701431,375.074921 C173.534302,374.256378 172.567825,373.630463 172.241653,372.808167 C171.727402,371.511658 170.702911,369.725616 171.180359,368.840302 C174.219986,363.203979 171.642822,358.081055 170.993607,352.562134 C170.619720,349.383728 167.057266,344.793427 171.555817,341.365265 C171.942886,341.070343 171.264221,339.540039 171.298965,338.591614 C171.456970,334.277802 171.642838,329.963409 171.940887,325.657654 C172.005661,324.721832 173.092773,323.621887 172.829498,322.934296 C169.978683,315.488983 173.649933,308.453766 174.130875,301.243256 C174.572632,294.620422 176.188705,294.018494 182.405899,296.132355 C189.177734,298.434753 196.058807,300.422272 202.930023,302.416962 C203.686142,302.636475 204.690353,302.001404 205.782928,301.487671 C217.818893,306.649231 229.648987,312.091095 241.491577,317.505615 C242.053253,317.762421 242.725632,317.777130 243.870789,318.258545 C244.885117,318.716064 245.375122,318.819580 245.865143,318.923096 C245.865143,318.923096 246.047821,318.895111 246.173248,319.297943 C245.473572,320.446350 244.518829,321.932373 243.844910,321.814392 C240.139465,321.165680 236.389572,320.434052 232.868546,319.146698 C227.377625,317.139038 225.698410,317.879883 226.120346,323.721100 C226.438660,328.127930 228.333633,332.421936 228.641907,336.828125 C228.952972,341.274017 228.173065,345.796265 227.760178,351.934204 C233.097000,349.686981 237.177658,348.198700 241.029755,346.256958 C243.201370,345.162292 244.696472,344.246002 245.076767,347.630249 C245.076767,347.630249 244.945251,348.020599 244.655594,348.111969 C244.365936,348.203339 244.198807,348.554108 244.198807,348.554108 C244.198807,348.554108 243.962860,348.940247 243.537506,348.980286 C242.776718,349.216187 242.441269,349.412079 242.105820,349.607971 C236.275162,354.768280 230.563889,360.071899 224.584274,365.053406 C216.713791,371.610138 208.632278,377.913544 200.360748,384.443878 z" transform="matrix(1, 0, 0, 1, -46.564747, -70.000046)"/>
  <path fill="#98FAFF" opacity="1.000000" stroke="none" d=" M655.909058,425.085388 C651.905273,425.309784 647.995178,425.254181 644.182800,425.837463 C637.807190,426.812927 634.926270,424.263123 634.713867,417.752625 C634.558411,412.987091 633.542725,408.253815 633.038330,403.492584 C632.901428,402.200134 632.790161,400.586365 633.413147,399.583649 C637.476929,393.042999 634.668823,386.607513 633.641602,380.039398 C633.134766,376.798248 633.865479,373.369354 633.976074,370.023438 C634.032776,368.308289 634.523010,366.308441 633.836914,364.922607 C631.584473,360.372864 631.534607,355.986389 633.042114,351.203796 C633.826843,348.714081 633.524658,345.881744 633.797607,342.010284 C633.797607,339.560913 633.528381,336.203766 633.865173,332.908600 C634.295471,328.698639 635.269775,324.546783 635.890625,320.352295 C636.081299,319.064209 636.366760,317.426849 635.778931,316.447723 C632.739868,311.385986 633.526123,306.342163 635.396606,301.245483 C636.329834,298.702637 637.801514,297.858429 640.796814,298.655121 C646.654053,300.213074 652.681213,301.132263 658.870605,302.043518 C668.648804,305.951233 678.194397,310.131287 688.100220,314.867645 C689.224182,315.613678 689.988037,315.803436 690.751831,315.993195 C691.395996,316.142487 692.040161,316.291779 692.797119,317.023651 C691.297546,317.581482 689.657043,317.740021 688.078003,317.497772 C683.198792,316.749268 678.362671,315.649414 673.462402,315.166748 C672.431213,315.065155 670.264709,316.964630 670.211243,318.022522 C669.884766,324.471680 670.053406,330.944519 669.966797,337.408264 C669.949402,338.704529 669.385315,339.990631 669.344482,341.289948 C669.183838,346.404907 669.183716,351.524933 669.018311,356.639679 C668.926392,359.482117 668.709656,362.327301 668.388184,365.152954 C668.189880,366.895935 666.776489,369.274261 667.471008,370.219849 C672.011841,376.402008 668.988281,383.309326 669.799805,389.801483 C670.118835,392.354340 669.852112,394.980347 669.852112,398.991638 C676.315430,394.381256 681.204346,390.812469 686.217163,387.427063 C686.805725,387.029572 688.075562,387.640961 689.029602,387.784637 C688.320923,388.756470 687.612183,389.728302 686.561584,390.962952 C686.219666,391.225739 686.130615,391.480347 686.130615,391.480347 C686.064697,391.637177 685.998779,391.793976 685.610962,392.093201 C685.289185,392.235596 685.113464,392.596741 685.113464,392.596741 C685.113464,392.596741 685.070496,392.941925 684.742676,393.094055 C684.206116,393.407776 684.061462,393.614319 683.980957,393.865814 C678.456665,400.957184 673.101868,408.190460 667.333374,415.077332 C664.634216,418.299774 661.136169,420.853058 657.446167,423.894958 C656.641602,424.331390 656.391052,424.582458 656.140503,424.833496 C656.140503,424.833496 656.046631,425.092560 655.909058,425.085388 z" transform="matrix(1, 0, 0, 1, -46.564747, -70.000046)"/>
  <path fill="#A3FFFF" opacity="1.000000" stroke="none" d=" M632.611938,289.109314 C630.448303,292.727448 627.511902,290.676117 624.634277,289.831329 C619.117615,288.211731 613.627258,286.474823 608.045837,285.115356 C605.155090,284.411194 602.676086,285.544312 601.963440,288.764496 C601.179626,292.306274 600.598328,295.895508 600.013184,299.477844 C599.411499,303.161407 598.912170,306.861664 598.364990,310.554169 C598.340881,310.716797 598.234253,310.880737 598.252014,311.034088 C598.884460,316.487183 599.643250,321.928650 600.133911,327.394226 C600.572144,332.276428 600.867798,337.182495 600.951416,342.082703 C601.056396,348.237732 603.007202,354.568146 599.493713,360.459686 C599.285767,360.808380 599.347534,361.494507 599.550232,361.885315 C603.317993,369.149017 600.872009,376.333282 599.298767,383.519714 C598.702393,386.243896 597.951416,388.934052 597.345703,391.656372 C597.211365,392.259918 597.146912,393.114044 597.465332,393.548645 C604.125854,402.638794 601.825195,412.859894 601.194214,422.852173 C600.977966,426.276581 604.356812,428.433197 610.245544,429.050659 C616.300476,429.685577 622.316223,430.718536 628.329712,431.696564 C629.202026,431.838409 629.966248,432.645264 630.839478,433.483459 C619.236694,433.881866 607.574890,433.941223 595.441162,433.979248 C591.367310,432.972046 587.737854,432.075500 584.170654,430.976868 C580.016846,429.697601 575.673645,428.704926 571.875854,426.707367 C569.115479,425.255402 568.708069,422.705505 572.369019,420.837646 C573.548767,420.235657 574.959290,418.380890 574.844421,417.242462 C574.353699,412.377960 573.775696,407.434204 572.380066,402.773712 C570.973450,398.076599 569.014465,393.739441 572.761658,389.248962 C573.368469,388.521759 573.713013,386.539520 573.268677,386.133636 C569.372925,382.574493 572.463379,379.908417 573.701294,376.519470 C574.993042,372.983124 575.828552,368.840118 573.164917,365.006195 C572.195862,363.611450 572.224609,361.496399 571.895813,359.692169 C571.604858,358.095215 571.267151,356.471893 571.281677,354.863220 C571.298828,352.965820 571.625122,351.064575 571.906433,349.178284 C572.137146,347.631470 572.830750,346.084930 572.743591,344.571350 C572.378906,338.236664 571.198059,331.891724 571.437256,325.593109 C571.785950,316.410950 573.090942,307.264648 574.002930,298.104523 C574.944641,288.645844 580.737305,281.749115 586.709167,275.146240 C588.171814,273.529083 591.386475,273.496521 593.879028,272.367340 C606.721069,277.670807 619.479736,283.342377 632.611938,289.109314 z" transform="matrix(1, 0, 0, 1, -46.564747, -70.000046)"/>
  <path fill="#A7FEFF" opacity="1.000000" stroke="none" d=" M429.151978,427.509277 C428.813293,427.906952 428.474609,428.304657 427.737671,428.948578 C427.339355,429.194794 427.208740,429.459778 427.208740,429.459778 C427.154877,429.618317 427.100983,429.776886 426.711182,430.119293 C426.210663,430.430054 426.143951,430.596344 426.175140,430.802032 C423.667328,434.454956 420.229980,435.765350 415.780579,436.100311 C398.506378,437.400757 383.113953,432.663116 369.086304,421.884827 C367.842010,418.487793 367.068451,415.572235 365.531708,413.138641 C358.314026,401.708618 350.701324,390.523712 343.680511,378.977173 C342.158417,376.473907 342.255859,372.857269 342.051666,369.724487 C341.904785,367.471069 343.022797,365.077850 342.645020,362.909271 C341.932007,358.816498 340.198975,354.898132 339.524139,350.802765 C338.515045,344.678619 338.054169,338.464111 337.319763,331.929626 C340.902496,333.147888 344.571198,334.641357 348.370361,335.637268 C356.886963,337.869904 364.242249,344.183716 373.758026,342.878174 C384.157318,348.374634 394.493378,353.995331 404.974640,359.330750 C414.461823,364.160126 424.107422,368.678223 433.803558,373.962402 C432.488861,374.738434 430.859100,375.401398 429.651703,374.945526 C423.776611,372.727386 418.129822,369.861450 412.181122,367.892914 C405.810699,365.784821 400.435883,359.778351 392.447632,362.623413 C393.319702,369.407715 394.185333,376.198608 395.080627,382.985565 C395.142914,383.457733 395.295685,384.149078 395.624512,384.320770 C402.170471,387.739441 397.891907,389.353027 394.211761,390.937683 C394.667816,391.774353 395.079163,392.304596 395.264618,392.904633 C396.812225,397.911926 400.252411,403.320404 399.343079,407.849182 C398.227173,413.406494 400.402283,415.987000 403.516907,419.089264 C400.766388,420.010834 396.058838,426.493896 397.428284,427.841583 C399.166809,429.552490 402.078064,430.573792 404.603333,430.869202 C408.706360,431.349152 412.945953,431.340912 417.050751,430.868256 C419.465790,430.590210 422.124573,429.484558 423.977966,427.924530 C427.223633,425.192688 429.780853,421.654755 432.943939,418.807190 C434.203583,417.673126 436.184296,413.698700 438.081909,418.553680 C438.081909,418.553680 437.906067,418.997894 437.612366,419.101501 C437.318665,419.205078 437.169250,419.482697 437.169250,419.482697 C435.473206,421.222137 433.777161,422.961609 431.711639,424.944580 C431.342133,425.188080 431.206940,425.463257 431.206940,425.463257 C431.119659,425.628479 431.032379,425.793701 430.628387,426.086243 C430.311676,426.213531 430.208069,426.446808 430.208069,426.446808 C430.126740,426.613007 430.045380,426.779175 429.638092,427.080505 C429.312134,427.215698 429.151978,427.509277 429.151978,427.509277 z" transform="matrix(1, 0, 0, 1, -46.564747, -70.000046)"/>
  <path fill="#98FAFF" opacity="1.000000" stroke="none" d=" M584.311279,258.695618 C582.997314,258.397064 581.563049,257.440582 581.094727,257.787598 C578.729492,259.540375 576.477478,261.500061 574.438110,263.628906 C566.578674,271.833038 558.836792,280.149811 550.981384,288.357788 C550.240784,289.131622 548.973022,289.376282 548.017334,289.974243 C546.382629,290.997070 544.891479,292.291779 543.171570,293.123993 C541.500305,293.932556 539.617188,294.303314 537.827148,294.866272 C537.499023,293.155823 537.092773,291.455658 536.865417,289.731934 C536.653198,288.121979 537.110352,286.247620 536.440247,284.905304 C533.824585,279.665741 534.036377,274.860687 537.416199,270.018158 C539.380493,267.203735 540.919983,264.092834 542.721375,260.993622 C535.697510,251.306946 543.537048,245.668243 549.566711,239.459518 C547.856079,238.355331 546.789062,237.666611 545.747253,236.994125 C546.357483,230.600250 546.405273,224.389267 542.762573,220.188812 C543.333801,216.991592 543.707520,214.519928 544.243408,212.083954 C544.463013,211.085648 545.055603,209.334961 545.440063,209.345398 C547.617432,209.404602 549.783142,209.893921 552.326416,210.295853 C554.404480,210.158646 556.926575,210.095596 559.422485,209.806396 C565.135681,209.144424 570.831787,208.335815 576.543579,207.660568 C579.169922,207.350082 581.861328,207.434647 584.437500,206.915100 C585.999878,206.600006 587.398315,205.472092 588.921143,204.317215 C602.871704,203.925110 616.771484,203.925110 632.074646,203.925110 C616.806519,223.640823 600.453064,240.912598 584.311279,258.695618 z" transform="matrix(1, 0, 0, 1, -46.564747, -70.000046)"/>
  <path fill="#A7FEFF" opacity="1.000000" stroke="none" d=" M895.083557,219.948730 C895.156738,232.000107 895.229919,244.051483 895.147644,257.018402 C894.992126,274.092590 894.992126,290.251221 894.992126,306.409882 C890.511353,303.754211 890.139709,299.977722 889.952881,296.003967 C889.774414,292.208893 889.205811,288.432159 888.808716,284.647339 C884.449829,298.235657 881.241821,311.761078 878.013733,325.281769 C876.488037,331.671936 874.937256,338.056183 873.373291,344.437073 C871.852478,350.642242 870.935120,356.499146 878.303772,360.088379 C879.635864,360.737274 880.027710,363.316498 880.853638,365.004578 C874.026855,362.394073 867.200073,359.783630 859.942505,356.782227 C859.120117,356.305023 858.728577,356.218781 858.336975,356.132538 C858.336975,356.132538 858.045471,356.243195 857.992065,355.744568 C855.479309,352.762329 853.353638,349.769379 850.494263,347.896240 C843.553589,343.349396 843.369080,341.169006 846.338745,333.673523 C849.391418,325.968323 850.990540,317.664856 852.956360,309.557922 C854.722534,302.274536 855.588440,294.724365 860.734558,288.686279 C861.570312,287.705688 862.609009,285.654297 862.189270,285.057037 C860.070007,282.041718 862.254578,280.287415 863.435181,277.933685 C865.857727,273.103668 867.929016,268.084930 869.918762,263.054413 C871.355591,259.421722 872.431152,255.645859 873.659851,251.931213 C874.116699,250.550217 874.566101,249.166382 874.992615,247.775787 C876.185242,243.887314 877.344055,239.988403 878.555603,236.105896 C879.333008,233.614700 880.138977,231.130783 881.005005,228.669235 C882.469177,224.507828 883.578857,220.150177 885.611633,216.281723 C887.420654,212.839020 890.359375,213.345978 892.425537,216.821426 C893.114807,217.980820 894.186646,218.912796 895.083557,219.948730 z" transform="matrix(1, 0, 0, 1, -46.564747, -70.000046)"/>
  <path fill="#B0FDFE" opacity="1.000000" stroke="none" d=" M895.224121,219.559692 C894.186646,218.912796 893.114807,217.980820 892.425537,216.821426 C890.359375,213.345978 887.420654,212.839020 885.611633,216.281723 C883.578857,220.150177 882.469177,224.507828 881.005005,228.669235 C880.138977,231.130783 879.333008,233.614700 878.555603,236.105896 C877.344055,239.988403 876.185242,243.887314 874.992615,247.775787 C874.566101,249.166382 874.116699,250.550217 873.659851,251.931213 C872.431152,255.645859 871.355591,259.421722 869.918762,263.054413 C867.929016,268.084930 865.857727,273.103668 863.435181,277.933685 C862.254578,280.287415 860.070007,282.041718 862.189270,285.057037 C862.609009,285.654297 861.570312,287.705688 860.734558,288.686279 C855.588440,294.724365 854.722534,302.274536 852.956360,309.557922 C850.990540,317.664856 849.391418,325.968323 846.338745,333.673523 C843.369080,341.169006 843.553589,343.349396 850.494263,347.896240 C853.353638,349.769379 855.479309,352.762329 857.912964,355.610229 C848.673035,352.178558 839.458801,348.382599 830.074585,343.945679 C827.698730,341.244934 825.687073,338.907501 823.238525,337.194397 C820.060059,334.970551 818.285522,332.867645 819.622742,328.536591 C821.502014,322.449921 822.483215,316.091553 824.017578,309.891235 C825.745911,302.907135 827.165649,295.789154 829.611938,289.053497 C833.364014,278.722473 837.654907,268.568085 842.152405,258.533844 C844.924438,252.349045 846.448181,245.459747 852.979431,241.262634 C857.523254,238.342743 861.209167,234.060196 865.165466,230.268646 C866.568176,228.924286 868.510559,227.187164 864.968384,225.898468 C873.920776,218.310944 882.873169,210.723450 891.807800,203.151016 C897.015015,208.272385 895.074890,213.935593 895.224121,219.559692 z" transform="matrix(1, 0, 0, 1, -46.564747, -70.000046)"/>
  <path fill="#B8FEFF" opacity="1.000000" stroke="none" d=" M864.642334,226.000641 C868.510559,227.187164 866.568176,228.924286 865.165466,230.268646 C861.209167,234.060196 857.523254,238.342743 852.979431,241.262634 C846.448181,245.459747 844.924438,252.349045 842.152405,258.533844 C837.654907,268.568085 833.364014,278.722473 829.611938,289.053497 C827.165649,295.789154 825.745911,302.907135 824.017578,309.891235 C822.483215,316.091553 821.502014,322.449921 819.622742,328.536591 C818.285522,332.867645 820.060059,334.970551 823.238525,337.194397 C825.687073,338.907501 827.698730,341.244934 829.851074,343.659058 C829.617920,344.008911 829.438354,344.004517 828.958252,343.681152 C828.470703,343.191315 828.253418,343.133270 828.005920,343.188049 C827.802673,343.170441 827.599426,343.152863 827.003113,342.755066 C826.147278,342.262177 825.684448,342.149536 825.221680,342.036865 C824.993713,342.009247 824.765686,341.981659 824.069275,341.649811 C823.160400,341.244507 822.719910,341.143433 822.279480,341.042358 C808.058533,335.509827 793.867249,329.899384 779.604065,324.477905 C772.573914,321.805725 765.411011,319.482758 757.762695,316.811249 C763.240356,311.749237 768.477295,306.587463 774.057190,301.827637 C782.709351,294.447174 791.685730,287.447540 800.362610,280.095184 C816.497070,266.423737 832.511475,252.610565 848.596863,238.881012 C849.079041,238.469543 849.796021,238.333206 850.916138,237.946533 C851.653564,237.710007 851.779846,237.527328 851.807678,237.276459 C851.807678,237.276459 852.052246,236.917755 852.349487,236.861450 C852.646790,236.805145 852.814392,236.497330 852.814392,236.497314 C854.366577,235.044708 855.918762,233.592087 857.963501,231.974442 C858.674438,231.692123 858.796753,231.510223 858.823181,231.263702 C858.823181,231.263702 859.102905,230.901382 859.385559,230.850922 C859.668213,230.800476 859.758423,230.589920 859.758423,230.589920 C859.822205,230.421951 859.885925,230.253967 860.280518,229.927002 C860.611267,229.768036 860.777283,229.383362 860.777283,229.383362 C860.777283,229.383362 861.029846,228.962509 861.351135,228.867722 C861.672424,228.772934 861.858582,228.436096 861.858582,228.436096 C862.677795,227.658325 863.497009,226.880569 864.642334,226.000641 z" transform="matrix(1, 0, 0, 1, -46.564747, -70.000046)"/>
  <path fill="#9FFEFF" opacity="1.000000" stroke="none" d=" M438.358887,418.434570 C436.184296,413.698700 434.203583,417.673126 432.943939,418.807190 C429.780853,421.654755 427.223633,425.192688 423.977966,427.924530 C422.124573,429.484558 419.465790,430.590210 417.050751,430.868256 C412.945953,431.340912 408.706360,431.349152 404.603333,430.869202 C402.078064,430.573792 399.166809,429.552490 397.428284,427.841583 C396.058838,426.493896 400.766388,420.010834 403.516907,419.089264 C400.402283,415.987000 398.227173,413.406494 399.343079,407.849182 C400.252411,403.320404 396.812225,397.911926 395.264618,392.904633 C395.079163,392.304596 394.667816,391.774353 394.211761,390.937683 C397.891907,389.353027 402.170471,387.739441 395.624512,384.320770 C395.295685,384.149078 395.142914,383.457733 395.080627,382.985565 C394.185333,376.198608 393.319702,369.407715 392.447632,362.623413 C400.435883,359.778351 405.810699,365.784821 412.181122,367.892914 C418.129822,369.861450 423.776611,372.727386 429.651703,374.945526 C430.859100,375.401398 432.488861,374.738434 434.031921,374.248169 C443.689575,378.343475 453.296143,382.664825 462.764313,387.270660 C467.321259,389.487457 463.903412,392.077759 462.297241,393.825378 C457.849213,398.665070 453.011383,403.143890 448.416626,407.852142 C445.082916,411.268250 441.891022,414.822693 438.358887,418.434570 z" transform="matrix(1, 0, 0, 1, -46.564747, -70.000046)"/>
  <path fill="#B0FDFE" opacity="1.000000" stroke="none" d=" M373.604309,342.596832 C364.242249,344.183716 356.886963,337.869904 348.370361,335.637268 C344.571198,334.641357 340.902496,333.147888 337.319763,331.929626 C338.054169,338.464111 338.515045,344.678619 339.524139,350.802765 C340.198975,354.898132 341.932007,358.816498 342.645020,362.909271 C343.022797,365.077850 341.904785,367.471069 342.051666,369.724487 C342.255859,372.857269 342.158417,376.473907 343.680511,378.977173 C350.701324,390.523712 358.314026,401.708618 365.531708,413.138641 C367.068451,415.572235 367.842010,418.487793 368.942902,421.565247 C365.290314,418.004333 361.662018,414.059509 357.920593,409.711426 C357.807495,409.308136 357.655853,409.238678 357.655853,409.238678 C356.456818,407.890137 355.257812,406.541626 353.922485,404.761108 C353.786224,404.329132 353.554291,404.232544 353.554291,404.232544 C353.383545,404.131012 353.212769,404.029510 352.920868,403.610596 C352.799713,403.293182 352.643677,403.223785 352.643677,403.223785 C349.185791,399.064453 345.658264,394.960724 342.283569,390.734955 C333.543121,379.790009 324.861633,368.797882 316.172272,357.812256 C306.232880,345.246277 296.310364,332.666962 286.139740,319.788544 C289.254852,315.522919 291.956329,311.175415 295.374054,307.492584 C296.582947,306.189941 300.065735,305.467499 301.615540,306.250763 C315.284515,313.159119 328.656036,320.655060 342.310120,327.594299 C352.541565,332.794006 363.059967,337.429016 373.604309,342.596832 z" transform="matrix(1, 0, 0, 1, -46.564747, -70.000046)"/>
  <path fill="#8FF3FF" opacity="1.000000" stroke="none" d=" M689.316467,387.635529 C688.075562,387.640961 686.805725,387.029572 686.217163,387.427063 C681.204346,390.812469 676.315430,394.381256 669.852112,398.991638 C669.852112,394.980347 670.118835,392.354340 669.799805,389.801483 C668.988281,383.309326 672.011841,376.402008 667.471008,370.219849 C666.776489,369.274261 668.189880,366.895935 668.388184,365.152954 C668.709656,362.327301 668.926392,359.482117 669.018311,356.639679 C669.183716,351.524933 669.183838,346.404907 669.344482,341.289948 C669.385315,339.990631 669.949402,338.704529 669.966797,337.408264 C670.053406,330.944519 669.884766,324.471680 670.211243,318.022522 C670.264709,316.964630 672.431213,315.065155 673.462402,315.166748 C678.362671,315.649414 683.198792,316.749268 688.078003,317.497772 C689.657043,317.740021 691.297546,317.581482 693.005432,317.283325 C700.484558,320.646179 707.868225,324.331970 715.527832,328.434692 C714.451294,328.907745 713.089355,329.094208 711.747864,328.997589 C705.643982,328.557892 703.097961,329.745178 701.742004,335.730804 C700.541016,341.032318 700.746643,346.643188 700.149719,352.097565 C700.002930,353.438019 699.084961,354.679626 698.638916,356.006134 C698.245972,357.174835 698.016846,358.398590 697.715332,359.598022 C699.045166,359.802460 700.577271,360.533997 701.667969,360.115356 C705.358154,358.699066 708.875732,356.837372 712.521179,355.291748 C712.765259,355.188232 713.523682,356.297882 714.042847,356.843262 C708.885498,363.154510 703.685791,369.431824 698.586609,375.789734 C695.511475,379.623901 692.592468,383.583313 689.316467,387.635529 z" transform="matrix(1, 0, 0, 1, -46.564747, -70.000046)"/>
  <path fill="#A7FEFF" opacity="1.000000" stroke="none" d=" M197.927734,287.733124 C193.999344,286.153290 190.040543,284.644623 186.147903,282.981140 C170.378494,276.242279 154.733032,269.197021 138.817612,262.824890 C133.120956,260.544128 133.735245,256.764526 133.793915,252.181412 C134.002838,235.866638 133.875549,219.547546 133.875549,202.317871 C140.315643,206.946091 146.823608,211.059113 152.681564,215.950592 C164.796280,226.066544 176.554718,236.608749 188.495224,246.934540 C189.468460,247.776169 190.713425,248.303574 192.024048,249.351410 C192.215973,249.725815 192.391907,249.798141 192.391907,249.798141 C192.572647,249.900497 192.753372,250.002838 193.066742,250.423889 C193.199387,250.742630 193.322983,250.804413 193.322983,250.804413 C195.809006,252.601471 198.295044,254.398514 200.548431,256.554382 C194.950226,254.176193 189.567810,251.471527 184.228745,248.683823 C182.477402,247.769394 180.939789,246.388016 179.127945,245.658569 C174.907227,243.959335 172.295349,246.279053 172.675125,250.732788 C173.019562,254.771774 173.438477,258.986755 172.649384,262.886292 C171.928894,266.446808 172.954956,268.766266 175.337372,270.751160 C177.601837,272.637817 180.176697,274.153320 182.624359,275.818390 C187.980972,279.462311 194.848282,281.164429 197.927734,287.733124 z" transform="matrix(1, 0, 0, 1, -46.564747, -70.000046)"/>
  <path fill="#8FF3FF" opacity="1.000000" stroke="none" d=" M681.947876,244.284302 C686.086670,249.319992 690.276428,254.314819 694.351990,259.401154 C700.229919,266.736664 706.024902,274.138641 712.023560,281.995941 C712.301819,282.683624 712.471558,282.802307 712.700989,282.835724 C712.700989,282.835724 713.063721,283.126038 713.129272,283.407654 C713.194763,283.689240 713.394104,283.811493 713.394104,283.811493 C713.571289,283.908539 713.748413,284.005554 714.065674,284.418152 C714.205750,284.733765 714.357788,284.824371 714.357788,284.824371 C714.527649,284.889893 714.697449,284.955383 715.014832,285.328247 C715.162415,285.635651 715.410095,285.793549 715.410095,285.793579 C724.175293,297.397614 732.940552,309.001648 741.866943,320.819061 C739.466064,322.766968 736.918640,324.833740 734.657349,326.668365 C714.468445,317.283936 694.407104,307.958801 674.360840,298.145081 C672.863342,295.416382 671.652222,292.863953 669.749634,291.028046 C668.009644,289.349060 665.175293,288.788910 663.481934,287.082123 C662.294250,285.884949 661.204163,283.095276 661.805969,281.867432 C665.074402,275.199127 665.351685,268.053833 666.011230,260.937958 C666.454346,256.156738 666.613770,251.330719 667.379211,246.602295 C668.490479,239.737778 668.676270,239.764603 674.971191,242.832230 C676.604553,243.628174 678.179321,244.580521 679.880005,245.180298 C680.399414,245.363449 681.249329,244.609222 681.947876,244.284302 M697.450500,287.824890 C694.440369,291.115417 693.117188,294.132446 697.144409,297.981903 C699.920715,300.635742 701.075684,305.433411 704.149963,307.241211 C712.247131,312.002563 720.977661,315.694946 729.509888,319.698059 C730.551819,320.186920 731.923157,319.973755 733.141846,320.085907 C733.230042,318.685303 733.871765,316.982452 733.302917,315.940643 C731.576965,312.779938 729.604431,309.693848 727.327148,306.906128 C721.684509,299.998718 714.853210,293.844299 710.379028,286.276184 C707.342957,281.140747 704.130554,278.881409 697.755859,278.152039 C697.755859,281.376434 697.755859,284.261292 697.450500,287.824890 z" transform="matrix(1, 0, 0, 1, -46.564747, -70.000046)"/>
  <path fill="#9FFEFF" opacity="1.000000" stroke="none" d=" M198.242096,287.920685 C194.848282,281.164429 187.980972,279.462311 182.624359,275.818390 C180.176697,274.153320 177.601837,272.637817 175.337372,270.751160 C172.954956,268.766266 171.928894,266.446808 172.649384,262.886292 C173.438477,258.986755 173.019562,254.771774 172.675125,250.732788 C172.295349,246.279053 174.907227,243.959335 179.127945,245.658569 C180.939789,246.388016 182.477402,247.769394 184.228745,248.683823 C189.567810,251.471527 194.950226,254.176193 200.681335,256.862610 C212.509232,266.476074 223.971588,276.140076 235.891006,285.934082 C236.348083,286.064056 236.627579,286.019287 236.627579,286.019287 C236.627579,286.019287 236.976761,286.096802 237.061462,286.382141 C237.146164,286.667480 237.559326,286.874878 237.559326,286.874878 C237.559326,286.874878 237.956024,286.999603 238.101318,287.338013 C238.396240,287.862732 238.590607,287.953400 238.829697,287.948456 C239.413376,288.294128 239.997040,288.639832 240.857346,289.343201 C241.133972,289.700897 241.529404,289.893982 241.529404,289.893982 C241.529404,289.893982 241.923630,289.977936 242.079239,290.308655 C242.388046,290.834229 242.588409,290.923431 242.835922,290.906952 C242.835922,290.906952 243.078339,290.911591 243.123398,291.208069 C243.288651,291.741669 243.481552,291.866241 243.747162,291.878235 C243.747162,291.878235 244.052444,291.981476 244.146484,292.301270 C244.396423,292.823700 244.601654,292.912201 244.856201,292.886536 C246.482895,294.298615 248.109573,295.710663 249.987122,297.496918 C250.237991,297.871094 250.542007,297.970947 250.542007,297.970947 C250.542007,297.970947 250.885208,297.958862 251.091446,298.283112 C251.514038,298.825928 251.775726,298.925598 252.082764,298.906372 C252.273026,298.944489 252.463303,298.982635 252.887558,299.351929 C253.121536,299.683044 253.533661,299.888275 253.533661,299.888275 C253.533661,299.888275 253.937759,300.060211 254.039459,300.375122 C254.141144,300.690063 254.534576,300.887238 254.534576,300.887238 C254.534576,300.887238 254.951981,301.101654 255.050049,301.415558 C255.148117,301.729462 255.483414,301.894592 255.483414,301.894592 C255.483414,301.894592 255.899002,301.982544 256.066711,302.317017 C256.383362,302.846222 256.580444,302.939941 256.825653,302.932678 C257.744751,303.425323 258.663849,303.917999 259.487183,304.922668 C256.889679,307.653381 254.387878,309.872070 251.886078,312.090790 C251.024033,311.665894 250.162003,311.240967 249.014786,310.464752 C248.729614,310.113434 248.398148,310.020386 248.398148,310.020386 C248.398148,310.020386 248.090668,310.057831 247.849457,309.716064 C247.102890,309.263824 246.597534,309.153351 246.092194,309.042877 C246.092194,309.042877 245.964722,309.067230 245.841812,308.786255 C245.291595,308.332062 244.864288,308.158813 244.436981,307.985596 C244.436981,307.985596 244.095154,308.015411 243.843048,307.672363 C243.098907,307.218597 242.606873,307.107880 242.114838,306.997162 C240.588272,306.401611 239.061707,305.806030 237.096558,304.777161 C236.155106,304.222412 235.652237,304.100952 235.149368,303.979431 C234.266724,303.715820 233.384079,303.452179 232.066803,302.755432 C231.123978,302.222534 230.615753,302.122772 230.107544,302.023010 C219.590500,297.384766 209.073471,292.746521 198.242096,287.920685 M242.710663,301.857849 C243.961243,302.173431 245.211838,302.488983 246.462418,302.804535 C246.768860,302.173035 247.075317,301.541504 247.381760,300.909973 C243.677521,298.463348 239.973297,296.016693 236.269058,293.570068 C235.507706,299.083740 239.205276,299.894135 242.710663,301.857849 z" transform="matrix(1, 0, 0, 1, -46.564747, -70.000046)"/>
  <path fill="#9CFEFF" opacity="1.000000" stroke="none" d=" M656.978577,289.922028 C650.089233,286.959412 643.178467,284.045410 636.315186,281.023712 C623.780273,275.505035 611.268677,269.933258 598.761169,264.352722 C597.281067,263.692322 595.887512,262.838104 593.440979,261.533691 C609.502686,243.369812 625.166565,225.655746 640.863342,207.904526 C653.265991,211.638565 662.818176,219.398056 670.539062,229.621124 C667.241394,228.242325 664.259644,226.535416 661.297485,224.795135 C657.615601,222.632080 654.148560,219.931671 650.222778,218.402756 C646.109558,216.800842 640.972107,219.475891 640.630066,223.122421 C640.147522,228.266815 640.893677,233.540436 640.261597,238.653351 C639.414124,245.508423 638.875732,252.755432 636.165161,258.940338 C632.457458,267.400574 633.534729,272.581879 641.753235,277.011139 C646.779846,279.720154 651.318054,283.362488 655.936584,286.773865 C656.662781,287.310272 656.649780,288.847534 656.978577,289.922028 z" transform="matrix(1, 0, 0, 1, -46.564747, -70.000046)"/>
  <path fill="#98FAFF" opacity="1.000000" stroke="none" d=" M657.240173,290.167725 C656.649780,288.847534 656.662781,287.310272 655.936584,286.773865 C651.318054,283.362488 646.779846,279.720154 641.753235,277.011139 C633.534729,272.581879 632.457458,267.400574 636.165161,258.940338 C638.875732,252.755432 639.414124,245.508423 640.261597,238.653351 C640.893677,233.540436 640.147522,228.266815 640.630066,223.122421 C640.972107,219.475891 646.109558,216.800842 650.222778,218.402756 C654.148560,219.931671 657.615601,222.632080 661.297485,224.795135 C664.259644,226.535416 667.241394,228.242325 670.578430,229.955475 C670.942383,229.946869 671.124451,229.992798 671.172363,230.216675 C671.319824,230.613617 671.464111,230.732559 671.653015,230.797394 C674.889954,235.159668 678.126892,239.521942 681.655884,244.084259 C681.249329,244.609222 680.399414,245.363449 679.880005,245.180298 C678.179321,244.580521 676.604553,243.628174 674.971191,242.832230 C668.676270,239.764603 668.490479,239.737778 667.379211,246.602295 C666.613770,251.330719 666.454346,256.156738 666.011230,260.937958 C665.351685,268.053833 665.074402,275.199127 661.805969,281.867432 C661.204163,283.095276 662.294250,285.884949 663.481934,287.082123 C665.175293,288.788910 668.009644,289.349060 669.749634,291.028046 C671.652222,292.863953 672.863342,295.416382 674.121582,297.883759 C668.412109,295.545166 662.956909,292.979309 657.240173,290.167725 z" transform="matrix(1, 0, 0, 1, -46.564747, -70.000046)"/>
  <path fill="#9AFDFF" opacity="1.000000" stroke="none" d=" M887.725098,376.935455 C895.431824,378.579803 895.403687,378.579773 895.395630,386.017914 C895.378845,401.448090 895.395081,416.878265 895.397644,432.308441 C895.397888,433.772736 895.397705,435.237030 895.397705,437.979279 C884.857666,431.926666 876.561462,424.657043 868.306396,416.752380 C867.097717,413.875885 866.246338,411.283386 864.659119,409.271393 C860.210083,403.631989 855.135559,398.212982 859.185913,390.315460 C861.124390,386.535767 863.581848,382.995850 866.049011,379.521179 C868.440063,376.153809 871.366577,375.312744 875.557678,377.078644 C879.364868,378.682709 883.715698,379.856934 887.725098,376.935455 z" transform="matrix(1, 0, 0, 1, -46.564747, -70.000046)"/>
  <path fill="#9CFEFF" opacity="1.000000" stroke="none" d=" M881.090637,365.283875 C880.027710,363.316498 879.635864,360.737274 878.303772,360.088379 C870.935120,356.499146 871.852478,350.642242 873.373291,344.437073 C874.937256,338.056183 876.488037,331.671936 878.013733,325.281769 C881.241821,311.761078 884.449829,298.235657 888.808716,284.647339 C889.205811,288.432159 889.774414,292.208893 889.952881,296.003967 C890.139709,299.977722 890.511353,303.754211 894.992126,306.409882 C894.992126,290.251221 894.992126,274.092590 895.032715,257.476074 C895.196960,277.662567 895.359253,298.306854 895.432251,318.951416 C895.491699,335.768066 895.444275,352.585052 895.444275,370.615051 C890.437195,368.823181 885.882385,367.193176 881.090637,365.283875 z" transform="matrix(1, 0, 0, 1, -46.564747, -70.000046)"/>
  <path fill="#A3FFFF" opacity="1.000000" stroke="none" d=" M887.511108,376.674072 C883.715698,379.856934 879.364868,378.682709 875.557678,377.078644 C871.366577,375.312744 868.440063,376.153809 866.049011,379.521179 C863.581848,382.995850 861.124390,386.535767 859.185913,390.315460 C855.135559,398.212982 860.210083,403.631989 864.659119,409.271393 C866.246338,411.283386 867.097717,413.875885 868.105225,416.467377 C857.803223,408.658417 847.680908,400.585480 837.658203,392.174622 C837.815796,391.049683 838.228760,389.823883 837.878967,389.540863 C831.344116,384.253021 832.154480,377.555481 834.054993,370.603943 C835.940918,363.705383 838.665466,362.119659 845.675293,363.291168 C847.293823,363.561676 849.118713,362.597290 850.848633,362.201141 C859.463745,365.736603 868.055115,369.331665 876.705627,372.778229 C880.169006,374.158112 883.762756,375.210968 887.511108,376.674072 z" transform="matrix(1, 0, 0, 1, -46.564747, -70.000046)"/>
  <path fill="#98FAFF" opacity="1.000000" stroke="none" d=" M245.362305,347.512909 C244.696472,344.246002 243.201370,345.162292 241.029755,346.256958 C237.177658,348.198700 233.097000,349.686981 227.760178,351.934204 C228.173065,345.796265 228.952972,341.274017 228.641907,336.828125 C228.333633,332.421936 226.438660,328.127930 226.120346,323.721100 C225.698410,317.879883 227.377625,317.139038 232.868546,319.146698 C236.389572,320.434052 240.139465,321.165680 243.844910,321.814392 C244.518829,321.932373 245.473572,320.446350 246.198044,319.386963 C253.532730,322.059174 260.968018,325.045197 269.093201,328.308319 C261.015625,334.884430 253.331741,341.140015 245.362305,347.512909 z" transform="matrix(1, 0, 0, 1, -46.564747, -70.000046)"/>
  <path fill="#B0FDFE" opacity="1.000000" stroke="none" d=" M850.680176,362.022095 C849.118713,362.597290 847.293823,363.561676 845.675293,363.291168 C838.665466,362.119659 835.940918,363.705383 834.054993,370.603943 C832.154480,377.555481 831.344116,384.253021 837.878967,389.540863 C838.228760,389.823883 837.815796,391.049683 837.465576,391.910431 C835.913574,390.994080 834.653809,390.003937 833.106934,388.658508 C832.819885,388.303253 832.424011,388.069794 832.424011,388.069824 C832.047791,387.715210 831.671631,387.360626 831.032104,386.627502 C830.768799,386.248932 830.488708,386.142487 830.488708,386.142487 C830.488708,386.142487 830.026550,385.964050 829.879395,385.637665 C829.732178,385.311279 829.320496,385.115540 829.320496,385.115540 C821.995728,379.202301 814.670898,373.289093 807.426392,366.834351 C808.005249,363.997681 808.988098,361.683136 808.897095,359.411621 C808.730835,355.261169 809.830383,352.367554 814.074341,351.054108 C815.432861,350.633667 816.616760,349.649261 817.880554,348.922852 C825.026123,351.952301 832.171692,354.981750 839.893555,358.310425 C841.269531,358.730286 842.069275,358.850952 842.868958,358.971588 C844.388794,359.563538 845.908569,360.155487 847.912476,361.161896 C848.938171,361.677216 849.479736,361.778046 850.021362,361.878876 C850.021362,361.878876 850.511719,361.843048 850.680176,362.022095 z" transform="matrix(1, 0, 0, 1, -46.564747, -70.000046)"/>
  <path fill="#B8FEFF" opacity="1.000000" stroke="none" d=" M817.730225,348.640015 C816.616760,349.649261 815.432861,350.633667 814.074341,351.054108 C809.830383,352.367554 808.730835,355.261169 808.897095,359.411621 C808.988098,361.683136 808.005249,363.997681 807.226868,366.553711 C797.088745,358.362610 787.306763,349.819366 777.344482,341.491821 C771.040283,336.222076 764.467163,331.274017 758.014709,326.181702 C758.323669,325.561005 758.632690,324.940338 758.941650,324.319641 C778.487793,332.332153 798.033875,340.344666 817.730225,348.640015 z" transform="matrix(1, 0, 0, 1, -46.564747, -70.000046)"/>
  <path fill="#8BEEFF" opacity="1.000000" stroke="none" d=" M714.339233,356.710785 C713.523682,356.297882 712.765259,355.188232 712.521179,355.291748 C708.875732,356.837372 705.358154,358.699066 701.667969,360.115356 C700.577271,360.533997 699.045166,359.802460 697.715332,359.598022 C698.016846,358.398590 698.245972,357.174835 698.638916,356.006134 C699.084961,354.679626 700.002930,353.438019 700.149719,352.097565 C700.746643,346.643188 700.541016,341.032318 701.742004,335.730804 C703.097961,329.745178 705.643982,328.557892 711.747864,328.997589 C713.089355,329.094208 714.451294,328.907745 715.894592,328.528076 C720.937622,330.256653 725.889893,332.308838 731.292114,334.547485 C725.523071,342.177948 720.079346,349.378113 714.339233,356.710785 z" transform="matrix(1, 0, 0, 1, -46.564747, -70.000046)"/>
  <path fill="#8FF3FF" opacity="1.000000" stroke="none" d=" M252.116913,312.357819 C254.387878,309.872070 256.889679,307.653381 259.629761,305.203766 C265.825500,310.114899 271.783020,315.256927 277.740509,320.398956 C277.487885,321.063477 277.235260,321.727997 276.982635,322.392517 C275.207794,322.208984 273.241699,322.455811 271.691406,321.766968 C265.175812,318.871979 258.784546,315.697205 252.116913,312.357819 z" transform="matrix(1, 0, 0, 1, -46.564747, -70.000046)"/>
  <path fill="#9CFEFF" opacity="1.000000" stroke="none" d=" M520.439087,434.965271 C524.664124,434.592529 529.353516,434.130676 534.050354,434.034943 C538.800293,433.938049 543.557617,434.203674 548.651917,434.543701 C539.630310,434.863464 530.268494,434.950104 520.439087,434.965271 z" transform="matrix(1, 0, 0, 1, -46.564747, -70.000046)"/>
  <path fill="#8FF3FF" opacity="1.000000" stroke="none" d=" M690.579773,315.759888 C689.988037,315.803436 689.224182,315.613678 688.334717,315.151550 C688.941895,315.094971 689.674805,315.310760 690.579773,315.759888 z" transform="matrix(1, 0, 0, 1, -46.564747, -70.000046)"/>
  <path fill="#A3FFFF" opacity="1.000000" stroke="none" d=" M842.706970,358.693939 C842.069275,358.850952 841.269531,358.730286 840.243530,358.398346 C840.859802,358.263458 841.702393,358.339874 842.706970,358.693939 z" transform="matrix(1, 0, 0, 1, -46.564747, -70.000046)"/>
  <path fill="#8FF3FF" opacity="1.000000" stroke="none" d=" M244.547119,308.197113 C244.864288,308.158813 245.291595,308.332062 245.822495,308.724304 C245.503143,308.765076 245.080200,308.586853 244.547119,308.197113 z" transform="matrix(1, 0, 0, 1, -46.564747, -70.000046)"/>
  <path fill="#B0FDFE" opacity="1.000000" stroke="none" d=" M822.395081,341.255798 C822.719910,341.143433 823.160400,341.244507 823.747925,341.525696 C823.433533,341.627014 822.972107,341.548157 822.395081,341.255798 z" transform="matrix(1, 0, 0, 1, -46.564747, -70.000046)"/>
  <path fill="#B0FDFE" opacity="1.000000" stroke="none" d=" M825.343262,342.257324 C825.684448,342.149536 826.147278,342.262177 826.762573,342.565826 C826.431763,342.663788 825.948303,342.570770 825.343262,342.257324 z" transform="matrix(1, 0, 0, 1, -46.564747, -70.000046)"/>
  <path fill="#98FAFF" opacity="1.000000" stroke="none" d=" M245.750732,318.677399 C245.375122,318.819580 244.885117,318.716064 244.227448,318.417419 C244.585281,318.292114 245.110794,318.361908 245.750732,318.677399 z" transform="matrix(1, 0, 0, 1, -46.564747, -70.000046)"/>
  <path fill="#98FAFF" opacity="1.000000" stroke="none" d=" M242.291687,349.543182 C242.441269,349.412079 242.776718,349.216187 243.318024,349.035187 C243.175110,349.192871 242.826324,349.335632 242.291687,349.543182 z" transform="matrix(1, 0, 0, 1, -46.564747, -70.000046)"/>
  <path fill="#8FF3FF" opacity="1.000000" stroke="none" d=" M246.211670,309.290253 C246.597534,309.153351 247.102890,309.263824 247.757538,309.591431 C247.381622,309.718231 246.856384,309.627930 246.211670,309.290253 z" transform="matrix(1, 0, 0, 1, -46.564747, -70.000046)"/>
  <path fill="#8FF3FF" opacity="1.000000" stroke="none" d=" M242.243103,307.229034 C242.606873,307.107880 243.098907,307.218597 243.731400,307.542114 C243.371704,307.656891 242.871536,307.558899 242.243103,307.229034 z" transform="matrix(1, 0, 0, 1, -46.564747, -70.000046)"/>
  <path fill="#8FF3FF" opacity="1.000000" stroke="none" d=" M235.301849,304.199646 C235.652237,304.100952 236.155106,304.222412 236.823914,304.551514 C236.478012,304.646057 235.966171,304.532959 235.301849,304.199646 z" transform="matrix(1, 0, 0, 1, -46.564747, -70.000046)"/>
  <path fill="#8FF3FF" opacity="1.000000" stroke="none" d=" M230.268677,302.233704 C230.615753,302.122772 231.123978,302.222534 231.800659,302.529053 C231.456009,302.638672 230.942917,302.541534 230.268677,302.233704 z" transform="matrix(1, 0, 0, 1, -46.564747, -70.000046)"/>
  <path fill="#B0FDFE" opacity="1.000000" stroke="none" d=" M858.443726,356.314758 C858.728577,356.218781 859.120117,356.305023 859.641479,356.550232 C859.364380,356.638489 858.957458,356.567719 858.443726,356.314758 z" transform="matrix(1, 0, 0, 1, -46.564747, -70.000046)"/>
  <path fill="#98FAFF" opacity="1.000000" stroke="none" d=" M651.270508,427.849335 C651.418945,427.541992 651.825134,427.289703 652.473694,427.041138 C652.320129,427.331390 651.924194,427.617920 651.270508,427.849335 z" transform="matrix(1, 0, 0, 1, -46.564747, -70.000046)"/>
  <path fill="#A3FFFF" opacity="1.000000" stroke="none" d=" M849.847900,361.653137 C849.479736,361.778046 848.938171,361.677216 848.199524,361.367859 C848.559814,361.248688 849.117188,361.338043 849.847900,361.653137 z" transform="matrix(1, 0, 0, 1, -46.564747, -70.000046)"/>
  <path fill="#A3FFFF" opacity="1.000000" stroke="none" d=" M829.319580,385.252167 C829.320496,385.115540 829.732178,385.311279 829.753906,385.424103 C829.775574,385.536926 829.508484,385.581726 829.508484,385.581726 C829.508484,385.581726 829.318726,385.388794 829.319580,385.252167 z" transform="matrix(1, 0, 0, 1, -46.564747, -70.000046)"/>
  <path fill="#9FFEFF" opacity="1.000000" stroke="none" d=" M199.282349,385.497192 C199.181854,385.441284 199.319962,385.194092 199.390076,385.193848 C199.460190,385.193573 199.382843,385.553101 199.282349,385.497192 z" transform="matrix(1, 0, 0, 1, -46.564747, -70.000046)"/>
  <path fill="#A7FEFF" opacity="1.000000" stroke="none" d=" M357.583252,409.309875 C357.655853,409.238678 357.807495,409.308136 357.805908,409.351562 C357.804291,409.395020 357.510681,409.381073 357.583252,409.309875 z" transform="matrix(1, 0, 0, 1, -46.564747, -70.000046)"/>
  <path fill="#B0FDFE" opacity="1.000000" stroke="none" d=" M859.672302,230.527039 C859.758423,230.589920 859.668213,230.800476 859.607910,230.796661 C859.547546,230.792847 859.586182,230.464172 859.672302,230.527039 z" transform="matrix(1, 0, 0, 1, -46.564747, -70.000046)"/>
  <path fill="#A3FFFF" opacity="1.000000" stroke="none" d=" M830.459473,386.255554 C830.488708,386.142487 830.768799,386.248932 830.791565,386.323425 C830.814331,386.397888 830.430237,386.368652 830.459473,386.255554 z" transform="matrix(1, 0, 0, 1, -46.564747, -70.000046)"/>
  <path fill="#A3FFFF" opacity="1.000000" stroke="none" d=" M832.408386,388.217041 C832.424011,388.069794 832.819885,388.303253 832.855469,388.413452 C832.891052,388.523621 832.600708,388.572815 832.600708,388.572815 C832.600708,388.572815 832.392761,388.364288 832.408386,388.217041 z" transform="matrix(1, 0, 0, 1, -46.564747, -70.000046)"/>
  <path fill="#8FF3FF" opacity="1.000000" stroke="none" d=" M686.241089,391.519165 C686.130615,391.480347 686.219666,391.225739 686.288330,391.207153 C686.356995,391.188538 686.351562,391.557953 686.241089,391.519165 z" transform="matrix(1, 0, 0, 1, -46.564747, -70.000046)"/>
  <path fill="#8FF3FF" opacity="1.000000" stroke="none" d=" M685.241516,392.613525 C685.113464,392.596741 685.289185,392.235596 685.388367,392.217957 C685.610535,392.388336 685.571228,392.531647 685.241516,392.613525 z" transform="matrix(1, 0, 0, 1, -46.564747, -70.000046)"/>
  <path fill="#B0FDFE" opacity="1.000000" stroke="none" d=" M858.634033,231.256744 C858.796753,231.510223 858.674438,231.692123 858.293640,231.854813 C858.098145,231.616913 858.202698,231.400101 858.634033,231.256744 z" transform="matrix(1, 0, 0, 1, -46.564747, -70.000046)"/>
  <path fill="#B0FDFE" opacity="1.000000" stroke="none" d=" M852.700562,236.454956 C852.814392,236.497330 852.646790,236.805145 852.558960,236.804443 C852.471130,236.803757 852.586670,236.412567 852.700562,236.454956 z" transform="matrix(1, 0, 0, 1, -46.564747, -70.000046)"/>
  <path fill="#8FF3FF" opacity="1.000000" stroke="none" d=" M684.207458,393.874298 C684.061462,393.614319 684.206116,393.407776 684.591431,393.179810 C684.854614,393.455688 684.743286,393.712128 684.207458,393.874298 z" transform="matrix(1, 0, 0, 1, -46.564747, -70.000046)"/>
  <path fill="#A7FEFF" opacity="1.000000" stroke="none" d=" M352.572327,403.297150 C352.643677,403.223785 352.799713,403.293182 352.800232,403.338135 C352.800720,403.383118 352.501007,403.370514 352.572327,403.297150 z" transform="matrix(1, 0, 0, 1, -46.564747, -70.000046)"/>
  <path fill="#A7FEFF" opacity="1.000000" stroke="none" d=" M353.498840,404.323944 C353.554291,404.232544 353.786224,404.329132 353.780762,404.394104 C353.775299,404.459045 353.443420,404.415344 353.498840,404.323944 z" transform="matrix(1, 0, 0, 1, -46.564747, -70.000046)"/>
  <path fill="#8BEEFF" opacity="1.000000" stroke="none" d=" M712.713745,282.654236 C712.471558,282.802307 712.301819,282.683624 712.147217,282.327240 C712.376404,282.136719 712.584351,282.236023 712.713745,282.654236 z" transform="matrix(1, 0, 0, 1, -46.564747, -70.000046)"/>
  <path fill="#9CFEFF" opacity="1.000000" stroke="none" d=" M671.674561,230.629456 C671.464111,230.732559 671.319824,230.613617 671.168274,230.310486 C671.369812,230.150162 671.563049,230.243851 671.674561,230.629456 z" transform="matrix(1, 0, 0, 1, -46.564747, -70.000046)"/>
  <path fill="#9FFEFF" opacity="1.000000" stroke="none" d=" M437.277985,419.531525 C437.169250,419.482697 437.318665,419.205078 437.397034,419.204865 C437.475372,419.204651 437.386719,419.580353 437.277985,419.531525 z" transform="matrix(1, 0, 0, 1, -46.564747, -70.000046)"/>
  <path fill="#B0FDFE" opacity="1.000000" stroke="none" d=" M860.645203,229.351044 C860.777283,229.383362 860.611267,229.768036 860.500061,229.770676 C860.257935,229.574387 860.299316,229.422852 860.645203,229.351044 z" transform="matrix(1, 0, 0, 1, -46.564747, -70.000046)"/>
  <path fill="#9CFEFF" opacity="1.000000" stroke="none" d=" M656.429504,424.787170 C656.391052,424.582458 656.641602,424.331390 657.124939,423.924316 C657.144653,424.092499 656.931580,424.416656 656.429504,424.787170 z" transform="matrix(1, 0, 0, 1, -46.564747, -70.000046)"/>
  <path fill="#9FFEFF" opacity="1.000000" stroke="none" d=" M431.316223,425.505249 C431.206940,425.463257 431.342133,425.188080 431.423279,425.168549 C431.504425,425.149017 431.425537,425.547241 431.316223,425.505249 z" transform="matrix(1, 0, 0, 1, -46.564747, -70.000046)"/>
  <path fill="#9FFEFF" opacity="1.000000" stroke="none" d=" M430.303284,426.500854 C430.208069,426.446808 430.311676,426.213531 430.377625,426.211517 C430.443542,426.209503 430.398468,426.554932 430.303284,426.500854 z" transform="matrix(1, 0, 0, 1, -46.564747, -70.000046)"/>
  <path fill="#9FFEFF" opacity="1.000000" stroke="none" d=" M429.264709,427.549988 C429.151978,427.509277 429.312134,427.215698 429.394012,427.212585 C429.475891,427.209442 429.377441,427.590698 429.264709,427.549988 z" transform="matrix(1, 0, 0, 1, -46.564747, -70.000046)"/>
  <path fill="#9FFEFF" opacity="1.000000" stroke="none" d=" M427.315735,429.506470 C427.208740,429.459778 427.339355,429.194794 427.417847,429.177002 C427.496368,429.159210 427.422699,429.553131 427.315735,429.506470 z" transform="matrix(1, 0, 0, 1, -46.564747, -70.000046)"/>
  <path fill="#9FFEFF" opacity="1.000000" stroke="none" d=" M426.334717,430.797729 C426.143951,430.596344 426.210663,430.430054 426.509430,430.268921 C426.762878,430.466339 426.713135,430.652557 426.334717,430.797729 z" transform="matrix(1, 0, 0, 1, -46.564747, -70.000046)"/>
  <path fill="#B0FDFE" opacity="1.000000" stroke="none" d=" M861.736084,228.398712 C861.858582,228.436096 861.672424,228.772934 861.576416,228.770294 C861.480347,228.767670 861.419067,228.522675 861.419067,228.522675 C861.419067,228.522675 861.613586,228.361343 861.736084,228.398712 z" transform="matrix(1, 0, 0, 1, -46.564747, -70.000046)"/>
  <path fill="#8FF3FF" opacity="1.000000" stroke="none" d=" M238.795105,287.773193 C238.590607,287.953400 238.396240,287.862732 238.203476,287.519104 C238.432495,287.257233 238.632553,287.335938 238.795105,287.773193 z" transform="matrix(1, 0, 0, 1, -46.564747, -70.000046)"/>
  <path fill="#8FF3FF" opacity="1.000000" stroke="none" d=" M243.747238,291.679962 C243.481552,291.866241 243.288651,291.741669 243.132568,291.328949 C243.408569,291.074982 243.625443,291.184448 243.747238,291.679962 z" transform="matrix(1, 0, 0, 1, -46.564747, -70.000046)"/>
  <path fill="#8FF3FF" opacity="1.000000" stroke="none" d=" M250.558044,297.852600 C250.542007,297.970947 250.237991,297.871094 250.206528,297.794708 C250.175064,297.718323 250.574081,297.734222 250.558044,297.852600 z" transform="matrix(1, 0, 0, 1, -46.564747, -70.000046)"/>
  <path fill="#8FF3FF" opacity="1.000000" stroke="none" d=" M252.005402,298.690063 C251.775726,298.925598 251.514038,298.825928 251.197296,298.418335 C251.429840,298.120758 251.706894,298.202271 252.005402,298.690063 z" transform="matrix(1, 0, 0, 1, -46.564747, -70.000046)"/>
  <path fill="#8FF3FF" opacity="1.000000" stroke="none" d=" M253.546234,299.744385 C253.533661,299.888275 253.121536,299.683044 253.085938,299.564941 C253.266693,299.344299 253.436188,299.395538 253.546234,299.744385 z" transform="matrix(1, 0, 0, 1, -46.564747, -70.000046)"/>
  <path fill="#8FF3FF" opacity="1.000000" stroke="none" d=" M254.554993,300.751892 C254.534576,300.887238 254.141144,300.690063 254.126480,300.576721 C254.317810,300.359344 254.472351,300.410400 254.554993,300.751892 z" transform="matrix(1, 0, 0, 1, -46.564747, -70.000046)"/>
  <path fill="#8FF3FF" opacity="1.000000" stroke="none" d=" M255.510651,301.773865 C255.483414,301.894592 255.148117,301.729462 255.134369,301.634521 C255.120605,301.539581 255.537888,301.653107 255.510651,301.773865 z" transform="matrix(1, 0, 0, 1, -46.564747, -70.000046)"/>
  <path fill="#8FF3FF" opacity="1.000000" stroke="none" d=" M256.796478,302.750153 C256.580444,302.939941 256.383362,302.846222 256.189575,302.490234 C256.426514,302.215057 256.634033,302.294586 256.796478,302.750153 z" transform="matrix(1, 0, 0, 1, -46.564747, -70.000046)"/>
  <path fill="#8FF3FF" opacity="1.000000" stroke="none" d=" M242.823059,290.717316 C242.588409,290.923431 242.388046,290.834229 242.189377,290.477417 C242.424026,290.203949 242.646118,290.274658 242.823059,290.717316 z" transform="matrix(1, 0, 0, 1, -46.564747, -70.000046)"/>
  <path fill="#8FF3FF" opacity="1.000000" stroke="none" d=" M248.390350,310.147156 C248.398148,310.020386 248.729614,310.113434 248.764008,310.194519 C248.798416,310.275604 248.589752,310.420197 248.589752,310.420197 C248.589752,310.420197 248.382538,310.273926 248.390350,310.147156 z" transform="matrix(1, 0, 0, 1, -46.564747, -70.000046)"/>
  <path fill="#B0FDFE" opacity="1.000000" stroke="none" d=" M547.658630,312.355347 C547.760742,312.392242 547.658447,312.645660 547.585938,312.652679 C547.513489,312.659698 547.556519,312.318481 547.658630,312.355347 z" transform="matrix(1, 0, 0, 1, -46.564747, -70.000046)"/>
  <path fill="#8FF3FF" opacity="1.000000" stroke="none" d=" M241.545013,289.754822 C241.529404,289.893982 241.133972,289.700897 241.101257,289.587280 C241.277145,289.367981 241.441177,289.415314 241.545013,289.754822 z" transform="matrix(1, 0, 0, 1, -46.564747, -70.000046)"/>
  <path fill="#B0FDFE" opacity="1.000000" stroke="none" d=" M851.619568,237.274963 C851.779846,237.527328 851.653564,237.710007 851.263916,237.872650 C851.091125,237.643921 851.201904,237.428146 851.619568,237.274963 z" transform="matrix(1, 0, 0, 1, -46.564747, -70.000046)"/>
  <path fill="#A9FFFF" opacity="1.000000" stroke="none" d=" M533.626221,328.431885 C533.732483,328.472565 533.611816,328.772186 533.526245,328.770477 C533.440674,328.768768 533.519958,328.391205 533.626221,328.431885 z" transform="matrix(1, 0, 0, 1, -46.564747, -70.000046)"/>
  <path fill="#8FF3FF" opacity="1.000000" stroke="none" d=" M237.578033,286.734039 C237.559326,286.874878 237.146164,286.667480 237.129486,286.547546 C237.327332,286.327942 237.488647,286.383148 237.578033,286.734039 z" transform="matrix(1, 0, 0, 1, -46.564747, -70.000046)"/>
  <path fill="#8BEEFF" opacity="1.000000" stroke="none" d=" M715.470825,285.691956 C715.410095,285.793549 715.162415,285.635651 715.157532,285.560974 C715.152649,285.486298 715.531494,285.590332 715.470825,285.691956 z" transform="matrix(1, 0, 0, 1, -46.564747, -70.000046)"/>
  <path fill="#B0FDFE" opacity="1.000000" stroke="none" d=" M828.064209,343.370575 C828.253418,343.133270 828.470703,343.191315 828.750854,343.509155 C828.843994,343.656158 828.466187,343.723083 828.466187,343.723083 C828.466187,343.723083 828.122559,343.553101 828.064209,343.370575 z" transform="matrix(1, 0, 0, 1, -46.564747, -70.000046)"/>
  <path fill="#8FF3FF" opacity="1.000000" stroke="none" d=" M236.633606,285.889648 C236.627579,286.019287 236.348083,286.064056 236.210327,286.033569 C236.072586,286.003082 236.278442,285.705383 236.278442,285.705383 C236.278442,285.705383 236.639648,285.759979 236.633606,285.889648 z" transform="matrix(1, 0, 0, 1, -46.564747, -70.000046)"/>
  <path fill="#8BEEFF" opacity="1.000000" stroke="none" d=" M714.420898,284.745209 C714.357788,284.824371 714.205750,284.733765 714.193970,284.692596 C714.182251,284.651428 714.484070,284.666046 714.420898,284.745209 z" transform="matrix(1, 0, 0, 1, -46.564747, -70.000046)"/>
  <path fill="#98FAFF" opacity="1.000000" stroke="none" d=" M244.324738,348.589722 C244.198807,348.554108 244.365936,348.203339 244.467224,348.195190 C244.695343,348.378174 244.656067,348.524261 244.324738,348.589722 z" transform="matrix(1, 0, 0, 1, -46.564747, -70.000046)"/>
  <path fill="#8BEEFF" opacity="1.000000" stroke="none" d=" M713.448059,283.719666 C713.394104,283.811493 713.194763,283.689240 713.180786,283.634155 C713.166809,283.579102 713.502014,283.627808 713.448059,283.719666 z" transform="matrix(1, 0, 0, 1, -46.564747, -70.000046)"/>
  <path fill="#8FF3FF" opacity="1.000000" stroke="none" d=" M244.826569,292.703369 C244.601654,292.912201 244.396423,292.823700 244.189575,292.456543 C244.412537,292.211212 244.631973,292.287262 244.826569,292.703369 z" transform="matrix(1, 0, 0, 1, -46.564747, -70.000046)"/>
  <path fill="#9FFEFF" opacity="1.000000" stroke="none" d=" M193.398407,250.737091 C193.322983,250.804413 193.199387,250.742630 193.194794,250.707901 C193.190216,250.673172 193.473816,250.669785 193.398407,250.737091 z" transform="matrix(1, 0, 0, 1, -46.564747, -70.000046)"/>
  <path fill="#9FFEFF" opacity="1.000000" stroke="none" d=" M192.460846,249.715988 C192.391907,249.798141 192.215973,249.725815 192.217422,249.676758 C192.218872,249.627701 192.529800,249.633835 192.460846,249.715988 z" transform="matrix(1, 0, 0, 1, -46.564747, -70.000046)"/>
  <path fill="#8BEEFF" opacity="1.000000" stroke="none" d=" M697.603149,287.485535 C697.755859,284.261292 697.755859,281.376434 697.755859,278.152039 C704.130554,278.881409 707.342957,281.140747 710.379028,286.276184 C714.853210,293.844299 721.684509,299.998718 727.327148,306.906128 C729.604431,309.693848 731.576965,312.779938 733.302917,315.940643 C733.871765,316.982452 733.230042,318.685303 733.141846,320.085907 C731.923157,319.973755 730.551819,320.186920 729.509888,319.698059 C720.977661,315.694946 712.247131,312.002563 704.149963,307.241211 C701.075684,305.433411 699.920715,300.635742 697.144409,297.981903 C693.117188,294.132446 694.440369,291.115417 697.603149,287.485535 z" transform="matrix(1, 0, 0, 1, -46.564747, -70.000046)"/>
  <path fill="#8FF3FF" opacity="1.000000" stroke="none" d=" M242.381653,301.689697 C239.205276,299.894135 235.507706,299.083740 236.269058,293.570068 C239.973297,296.016693 243.677521,298.463348 247.381760,300.909973 C247.075317,301.541504 246.768860,302.173035 246.462418,302.804535 C245.211838,302.488983 243.961243,302.173431 242.381653,301.689697 z" transform="matrix(1, 0, 0, 1, -46.564747, -70.000046)"/>
</svg>